<svg xmlns="http://www.w3.org/2000/svg" width="430" height="430" style="width:100%;height:100%;transform:translate3d(0,0,0);content-visibility:visible" viewBox="0 0 430 430"><defs><clipPath id="a"><path d="M0 0h430v430H0z"/></clipPath><clipPath id="e"><path d="M0 0h430v430H0z"/></clipPath><clipPath id="d"><path d="M0 0h430v430H0z"/></clipPath><clipPath id="c"><path d="M0 0h430v430H0z"/></clipPath><clipPath id="b"><path d="M0 0h430v430H0z"/></clipPath></defs><g fill="none" clip-path="url(#a)"><g clip-path="url(#b)" style="display:none"><path class="secondary" style="display:none"/><path class="secondary" style="display:none"/><path class="primary" style="display:none"/></g><g clip-path="url(#c)" style="display:block"><path stroke="#121330" stroke-linecap="round" stroke-linejoin="round" stroke-width="12" d="M0-167.5c92.443 0 167.5 75.057 167.5 167.5S92.443 167.5 0 167.5q0 0 0 0" class="primary" style="display:block" transform="translate(215 215)"/><path stroke="#121330" stroke-linecap="round" stroke-linejoin="round" stroke-width="12" d="M0-167.5c92.443 0 167.5 75.057 167.5 167.5S92.443 167.5 0 167.5q0 0 0 0" class="primary" style="display:block" transform="rotate(180 107.5 107.5)"/><path stroke="#000" stroke-linecap="round" stroke-width="12" d="M-85 0H85" class="secondary" style="display:none" transform="translate(215.157 214.992)scale(.90504)"/><path stroke="#000" stroke-linecap="round" stroke-width="12" d="M-85 0H85" class="secondary" style="display:none" transform="rotate(90 .082 215.074)scale(.90504)"/><path stroke="#000" stroke-linecap="round" stroke-width="12" d="M-85 0H85" class="secondary" style="display:block" transform="translate(215.157 214.992)scale(.90504)"/><path stroke="#000" stroke-linecap="round" stroke-width="12" d="M-85 0H85" class="secondary" style="display:block" transform="rotate(90 .082 215.074)scale(.90504)"/><path class="secondary" style="display:none"/><path class="secondary" style="display:none"/></g><g clip-path="url(#d)" style="display:none"><path class="secondary" style="display:none"/><path class="secondary" style="display:none"/><path class="primary" style="display:none"/></g><g clip-path="url(#e)" style="display:none"><path class="secondary" style="display:none"/><path class="secondary" style="display:none"/><path class="primary" style="display:none"/></g></g></svg>